<svg viewBox="0 0 480 140" xmlns="http://www.w3.org/2000/svg">
  <circle cx="70" cy="70" r="60" fill="#1A1A1A" stroke="#FF6B00" stroke-width="3"/>
  <circle cx="70" cy="70" r="52" fill="none" stroke="#00D4FF" stroke-width="1" opacity="0.4"/>
  <rect x="36" y="36" width="18" height="18" rx="2" fill="#FF6B00"/>
  <rect x="57" y="36" width="18" height="18" rx="2" fill="#1A1A1A" stroke="#fff" stroke-width="1.5"/>
  <rect x="78" y="36" width="18" height="18" rx="2" fill="#00D4FF"/>
  <rect x="36" y="57" width="18" height="18" rx="2" fill="#1A1A1A" stroke="#FF6B00" stroke-width="1.5"/>
  <rect x="57" y="57" width="18" height="18" rx="2" fill="#fff"/>
  <rect x="78" y="57" width="18" height="18" rx="2" fill="#1A1A1A" stroke="#00D4FF" stroke-width="1.5"/>
  <rect x="36" y="78" width="18" height="18" rx="2" fill="#00D4FF"/>
  <rect x="57" y="78" width="18" height="18" rx="2" fill="#1A1A1A" stroke="#fff" stroke-width="1.5"/>
  <rect x="78" y="78" width="18" height="18" rx="2" fill="#FF6B00"/>
  <line x1="148" y1="20" x2="148" y2="120" stroke="#FF6B00" stroke-width="2.5"/>
  <text x="168" y="72" font-family="Arial Black, sans-serif" font-size="52" font-weight="900" fill="#FFFFFF" letter-spacing="-1">GAME</text>
  <text x="340" y="72" font-family="Arial Black, sans-serif" font-size="52" font-weight="900" fill="#FF6B00" letter-spacing="-1">DAY</text>
  <text x="168" y="110" font-family="Arial Black, sans-serif" font-size="28" font-weight="900" fill="#00D4FF" letter-spacing="8">SQUARES</text>
</svg>