<svg viewBox="0 0 520 160" xmlns="http://www.w3.org/2000/svg">
  <rect x="0" y="0" width="520" height="12" fill="#FF6B00"/>
  <rect x="0" y="148" width="520" height="12" fill="#00D4FF"/>
  <ellipse cx="60" cy="80" rx="38" ry="55" fill="#FF6B00" transform="rotate(20,60,80)"/>
  <ellipse cx="60" cy="80" rx="28" ry="45" fill="none" stroke="#fff" stroke-width="1.5" transform="rotate(20,60,80)"/>
  <line x1="42" y1="60" x2="78" y2="100" stroke="#fff" stroke-width="1.5"/>
  <line x1="36" y1="72" x2="50" y2="68" stroke="#fff" stroke-width="1"/>
  <line x1="70" y1="92" x2="84" y2="88" stroke="#fff" stroke-width="1"/>
  <text x="120" y="75" font-family="Arial Black, sans-serif" font-size="48" font-weight="900" fill="#FFFFFF" letter-spacing="2">GAMEDAY</text>
  <text x="120" y="120" font-family="Arial Black, sans-serif" font-size="32" font-weight="900" fill="#FF6B00" letter-spacing="6">SQUARES</text>
  <rect x="438" y="44" width="18" height="18" rx="2" fill="#FF6B00"/>
  <rect x="459" y="44" width="18" height="18" rx="2" fill="#1A1A1A" stroke="#00D4FF" stroke-width="1.5"/>
  <rect x="438" y="65" width="18" height="18" rx="2" fill="#00D4FF"/>
  <rect x="459" y="65" width="18" height="18" rx="2" fill="#FF6B00"/>
  <rect x="438" y="86" width="18" height="18" rx="2" fill="#1A1A1A" stroke="#FF6B00" stroke-width="1.5"/>
  <rect x="459" y="86" width="18" height="18" rx="2" fill="#00D4FF"/>
  <rect x="438" y="107" width="18" height="18" rx="2" fill="#FF6B00"/>
  <rect x="459" y="107" width="18" height="18" rx="2" fill="#1A1A1A" stroke="#00D4FF" stroke-width="1.5"/>
</svg>